<svg xmlns="http://www.w3.org/2000/svg" width="1080" height="798" viewBox="0 0 1080 790">
    <defs>
        <style>.cls-4{fill-rule:evenodd;fill:#ef748d}</style>
    </defs>
    <rect id="palma" y="192.219" width="547" height="546.781" rx="93" ry="93" fill="#e95572"/>
    <path id="basePalma" d="M93 192.219h262v261.875a93 93 0 01-93 93H0V285.219a93 93 0 0193-93z" fill="#eb647f"/>
    <path id="min" d="M380.111 602.992l508.145 60.92c29.187 3.5 49.938 29.406 46.349 57.865l-4.115 32.64c-3.589 28.459-30.158 48.693-59.345 45.194L363 738.691z" fill-rule="evenodd" fill="#eb647f"/>
    <path id="ane" class="cls-4" d="M390.472 463.014l584.56 28.249c28.358 1.37 50.248 25.718 48.888 54.382l-1.55 32.875c-1.36 28.665-25.444 50.791-53.8 49.42l-584.56-28.248z"/>
    <path id="med" d="M391 329h637a52 52 0 0152 52v33a52 52 0 01-52 52H391V329z" fill="#ea8499"/>
    <path id="ind" d="M376 189.969l588.475-64.511a52 52 0 0157.355 46.024l3.59 32.742a52 52 0 01-46.02 57.356l-588.478 64.511z" fill="#eb92a4" fill-rule="evenodd"/>
    <path id="pol" class="cls-4" d="M57.769 200.641L287.82 64.767c25.121-14.837 57.311-6.858 71.9 17.822l16.762 28.359c14.588 24.679 6.049 56.714-19.072 71.551L127.358 318.372c-25.121 14.837-57.311 6.858-71.9-17.821L38.7 272.192c-14.591-24.679-6.052-56.714 19.069-71.551z"/>
    <path id="pontaPol" class="cls-4" d="M307.419 57.5L500.881-.141c21.125-6.294 44.824 10.9 52.933 38.4l9.317 31.6c8.109 27.5-2.443 54.9-23.569 61.19L346.1 188.688c-21.125 6.294-44.824-10.9-52.933-38.4l-9.317-31.6c-8.109-27.5 2.443-54.896 23.569-61.188z"/>
</svg>