<svg xmlns="http://www.w3.org/2000/svg" width="1080" height="798" viewBox="0 0 1080 790">
    <defs>
        <style>.cls-2{fill:#eb647f}.cls-3{fill:#ef748d;fill-rule:evenodd}</style>
    </defs>
    <rect id="palma" y="192.219" width="547" height="546.781" rx="93" ry="93" fill="#e95572"/>
    <path id="basePalma" class="cls-2" d="M93 192.219h262v261.875a93 93 0 01-93 93H0V285.219a93 93 0 0193-93z"/>
    <path id="min" class="cls-2" d="M288.632 601H575a68 68 0 0168 68 68 68 0 01-68 68H290a68 68 0 01-68-68v-1.368A66.632 66.632 0 01288.632 601z"/>
    <path id="ane" class="cls-3" d="M330.1 465h293.583a68 68 0 0168 68 68 68 0 01-68 68H331.469a68 68 0 01-68-68v-1.368A66.632 66.632 0 01330.1 465z"/>
    <path id="med" class="cls-2" d="M324 331h688a68 68 0 0168 68 68 68 0 01-68 68H324V331z"/>
    <path id="ind" d="M288.864 199.617l607.647-162.5A68 68 0 11931.646 168.5L324 331z" fill-rule="evenodd" fill="#e95572"/>
    <path id="pol" class="cls-3" d="M89.979 185.261l267.1 6.624c29.166.723 52.242 24.543 51.541 53.2l-.805 32.932c-.7 28.66-24.913 51.307-54.08 50.584l-267.1-6.623c-29.166-.724-52.242-24.544-51.541-53.2l.806-32.933c.7-28.66 24.913-51.307 54.079-50.584z"/>
    <path id="pontaPol" class="cls-3" d="M393.951 208.5l159.295 124c17.395 13.539 17.167 42.816-.508 65.391l-20.311 25.94c-17.675 22.575-46.105 29.9-63.5 16.36l-159.3-124c-17.395-13.54-17.167-42.817.508-65.392l20.31-25.94c17.682-22.575 46.111-29.899 63.506-16.359z"/>
</svg>